<?xml version="1.0" encoding="UTF-8"?>
<svg version="1.1" xmlns="http://www.w3.org/2000/svg" width="249" height="203">
<path d="M0 0 C82.17 0 164.34 0 249 0 C249 66.99 249 133.98 249 203 C166.83 203 84.66 203 0 203 C0 136.01 0 69.02 0 0 Z " fill="#FDFDFD" transform="translate(0,0)"/>
<path d="M0 0 C6.14641494 3.59579005 11.19940417 8.90492339 16.18359375 13.91796875 C16.92456802 14.65702957 17.6655423 15.39609039 18.42897034 16.157547 C19.98008755 17.70731248 21.52871929 19.25956928 23.07495117 20.81420898 C25.44811896 23.19816725 27.83187629 25.5711649 30.21679688 27.94335938 C31.72720486 29.45508764 33.23699304 30.96743548 34.74609375 32.48046875 C35.45954453 33.18987106 36.1729953 33.89927338 36.9080658 34.63017273 C37.5628743 35.29128555 38.2176828 35.95239838 38.89233398 36.63354492 C39.75881813 37.50241585 39.75881813 37.50241585 40.64280701 38.38883972 C42.62099213 40.73719645 43.01794782 43.0879443 43.625 46.0625 C42.63578844 52.29453283 38.36515636 55.6717739 34 60 C33.13375 60.9075 32.2675 61.815 31.375 62.75 C29.44121417 64.58200763 27.47783178 66.29181526 25.4375 68 C22.55772117 70.43195146 20.30342609 73.00554608 18 76 C14.71710495 79.46034884 11.23254686 82.54979526 7.55078125 85.5703125 C5.75318225 87.11481807 5.75318225 87.11481807 4 90 C3.34 90 2.68 90 2 90 C2 90.66 2 91.32 2 92 C-1.22204682 95.51496016 -4.76605547 98.54864862 -8.44921875 101.5703125 C-10.24681775 103.11481807 -10.24681775 103.11481807 -12 106 C-12.66 106 -13.32 106 -14 106 C-14.37125 106.86625 -14.37125 106.86625 -14.75 107.75 C-16.18299988 110.32939979 -17.78424676 112.06121592 -20 114 C-20.66 114 -21.32 114 -22 114 C-22.37125 114.86625 -22.37125 114.86625 -22.75 115.75 C-24.18299988 118.32939979 -25.78424676 120.06121592 -28 122 C-28.66 122 -29.32 122 -30 122 C-30.3403125 122.8353125 -30.3403125 122.8353125 -30.6875 123.6875 C-32.37377267 126.65855185 -34.530354 128.64522125 -37 131 C-37.845625 131.886875 -38.69125 132.77375 -39.5625 133.6875 C-41.73250316 135.74622095 -43.38933033 136.69466516 -46 138 C-46.33 138.99 -46.66 139.98 -47 141 C-49.4375 143.6875 -49.4375 143.6875 -52 146 C-52.66 146 -53.32 146 -54 146 C-54.2475 146.5775 -54.495 147.155 -54.75 147.75 C-56.18299988 150.32939979 -57.78424676 152.06121592 -60 154 C-60.66 154 -61.32 154 -62 154 C-62.33 154.99 -62.66 155.98 -63 157 C-65.4375 159.6875 -65.4375 159.6875 -68 162 C-68.66 162 -69.32 162 -70 162 C-70.33 162.99 -70.66 163.98 -71 165 C-73.4375 167.6875 -73.4375 167.6875 -76 170 C-76.66 170 -77.32 170 -78 170 C-78.66 171.32 -79.32 172.64 -80 174 C-80.66 174 -81.32 174 -82 174 C-82.33 174.99 -82.66 175.98 -83 177 C-83.66 177 -84.32 177 -85 177 C-85 177.66 -85 178.32 -85 179 C-86.07205716 180.17580462 -87.16370667 181.33718823 -88.32421875 182.42578125 C-89.59118124 183.61595813 -90.81623063 184.85096384 -92.01953125 186.10546875 C-98.51918194 192.53682188 -98.51918194 192.53682188 -103.5625 192.9375 C-107.20345567 192.47963086 -109.06403774 191.42287521 -111.75210571 188.95657349 C-112.44662464 188.32184238 -113.14114357 187.68711128 -113.85670853 187.0331459 C-117.4194406 183.65350566 -120.92878325 180.22706338 -124.40380859 176.75732422 C-125.20155701 175.96454071 -125.99930542 175.1717572 -126.82122803 174.35494995 C-129.43305345 171.75761354 -132.04107344 169.15650203 -134.6484375 166.5546875 C-136.4706726 164.73821003 -138.29290771 162.92173258 -140.11514282 161.10525513 C-143.43663043 157.79290324 -146.75670361 154.47914894 -150.07514703 151.16374767 C-154.94988859 146.29350162 -159.8311326 141.42989724 -164.71803796 136.57185733 C-168.96613674 132.34797764 -173.20595496 128.11588341 -177.44282913 123.88074112 C-179.24170537 122.0848932 -181.04308437 120.29154866 -182.84699631 118.50075912 C-185.36263044 116.00213956 -187.86867442 113.49427323 -190.37255859 110.98388672 C-191.11956024 110.24609985 -191.86656189 109.50831299 -192.63619995 108.74816895 C-193.65792297 107.71809219 -193.65792297 107.71809219 -194.70028687 106.66720581 C-195.58897996 105.78071256 -195.58897996 105.78071256 -196.49562645 104.87631035 C-199.18952182 101.51638438 -200.01403028 98.78569545 -199.9375 94.5 C-198.7893341 90.21351396 -197.21110786 89.03212182 -194 86 C-192.91053633 84.91743687 -191.8247273 83.83118757 -190.74194336 82.74194336 C-167.12866211 59.12866211 -167.12866211 59.12866211 -165.47994995 57.4838562 C-164.2109985 56.21155542 -162.9548876 54.92647031 -161.70141602 53.63891602 C-158.52831514 50.58237617 -155.63042315 50.5420739 -151.37890625 50.58984375 C-144.90147389 51.70664243 -140.94079166 58.27105 -137 63 C-135.85153776 64.02085532 -134.68378078 65.02031935 -133.5 66 C-130.23571822 68.70147457 -127.71481621 71.74222055 -125 75 C-123.85153776 76.02085532 -122.68378078 77.02031935 -121.5 78 C-119.20073926 79.903689 -117.49645941 81.60683097 -115.5625 83.9375 C-112.42027851 87.69283788 -109.00998496 91.16448762 -105 94 C-102.00349722 94.31193329 -102.00349722 94.31193329 -100.18402767 92.55037785 C-99.50357671 91.86586268 -98.82312574 91.18134752 -98.12205505 90.47608948 C-97.33830505 89.69501831 -96.55455505 88.91394714 -95.74705505 88.10920715 C-94.89136429 87.24115952 -94.03567352 86.37311188 -93.15405273 85.47875977 C-91.7975914 84.12054611 -91.7975914 84.12054611 -90.41372681 82.7348938 C-87.92991701 80.24766658 -85.45540313 77.75136894 -82.98227572 75.25352597 C-80.39569369 72.64450044 -77.80024539 70.04432816 -75.20558167 67.44334412 C-70.29005303 62.51331456 -65.38179619 57.57611495 -60.47644526 52.63596052 C-51.688739 43.78637206 -42.88885491 34.94890051 -34.08623081 26.11415333 C-30.99536246 23.01143112 -27.90770049 19.9055619 -24.82264888 16.79705632 C-23.36650406 15.33042789 -21.90926956 13.86489244 -20.4515686 12.39981079 C-18.67156344 10.6105899 -16.89341287 8.81952141 -15.11741638 7.02632141 C-14.33648621 6.24243042 -13.55555603 5.45853943 -12.7509613 4.65089417 C-12.07088737 3.96600198 -11.39081343 3.28110979 -10.69013119 2.57546329 C-7.3038409 -0.58108224 -4.53294792 -0.51178444 0 0 Z " fill="#40A3ED" transform="translate(203,0)"/>
<path d="M0 0 C5.01504412 2.86999554 8.35600136 7.62720163 12 12 C13.14846224 13.02085532 14.31621922 14.02031935 15.5 15 C18.76428178 17.70147457 21.28518379 20.74222055 24 24 C25.14846224 25.02085532 26.31621922 26.02031935 27.5 27 C29.79926074 28.903689 31.50354059 30.60683097 33.4375 32.9375 C36.61545681 36.73554595 40.2142421 39.82484821 44 43 C43.49642843 47.32917076 42.23782069 49.2513581 39.15454102 52.28369141 C38.3402211 53.09448151 37.52590118 53.90527161 36.68690491 54.7406311 C35.80151535 55.60223846 34.91612579 56.46384583 34.00390625 57.3515625 C33.1000267 58.24741058 32.19614716 59.14325867 31.26487732 60.06625366 C28.86411879 62.44291696 26.45536986 64.81081926 24.04187012 67.17449951 C20.64181538 70.50820282 17.2566107 73.85697676 13.87083435 77.20516968 C12.06813519 78.98614957 10.26196467 80.76362384 8.45204163 82.53726196 C7.63456955 83.34174774 6.81709747 84.14623352 5.97485352 84.97509766 C5.25395035 85.68171539 4.53304718 86.38833313 3.79029846 87.11636353 C0.95790565 90.09642441 0.01694012 91.50026638 -0.125 95.6875 C-0.08375 96.780625 -0.0425 97.87375 0 99 C-3.5401193 97.48815474 -5.83395702 95.42473097 -8.55322266 92.72143555 C-9.44739899 91.83679123 -10.34157532 90.95214691 -11.2628479 90.04069519 C-12.23024912 89.07303253 -13.19731253 88.10503205 -14.1640625 87.13671875 C-15.16224622 86.14242415 -16.16065253 85.14835295 -17.15927124 84.15449524 C-19.24892598 82.07229339 -21.33467428 79.98626974 -23.41796875 77.89770508 C-26.08381544 75.22606329 -28.76085473 72.56596106 -31.44117165 69.90884686 C-33.50535652 67.85941623 -35.5625489 65.80307636 -37.6178093 63.74469948 C-38.60182533 62.76119575 -39.58819789 61.78004379 -40.57698441 60.80133629 C-41.96035564 59.43034453 -43.3331933 58.04874892 -44.70556641 56.66674805 C-45.87993759 55.493321 -45.87993759 55.493321 -47.07803345 54.29618835 C-50.05455274 50.74011765 -51.02015396 48.12862174 -50.9375 43.5 C-49.7893341 39.21351396 -48.21110786 38.03212182 -45 35 C-43.91053633 33.91743687 -42.8247273 32.83118757 -41.74194336 31.74194336 C-18.12866211 8.12866211 -18.12866211 8.12866211 -16.47994995 6.4838562 C-15.2109985 5.21155542 -13.9548876 3.92647031 -12.70141602 2.63891602 C-9.06294614 -0.86589792 -4.80272646 -0.82805629 0 0 Z " fill="#195BBB" transform="translate(54,51)"/>
<path d="M0 0 C6.14641494 3.59579005 11.19940417 8.90492339 16.18359375 13.91796875 C16.92456802 14.65702957 17.6655423 15.39609039 18.42897034 16.157547 C19.98008755 17.70731248 21.52871929 19.25956928 23.07495117 20.81420898 C25.44811896 23.19816725 27.83187629 25.5711649 30.21679688 27.94335938 C31.72720486 29.45508764 33.23699304 30.96743548 34.74609375 32.48046875 C35.45954453 33.18987106 36.1729953 33.89927338 36.9080658 34.63017273 C37.5628743 35.29128555 38.2176828 35.95239838 38.89233398 36.63354492 C39.46999008 37.21279221 40.04764618 37.79203949 40.64280701 38.38883972 C42.74057682 40.87915865 43.01309805 43.11569945 43.375 46.3125 C42.88035287 51.17653009 41.40417103 52.59582897 38 56 C37.67 56 37.34 56 37 56 C37.01160156 55.19175781 37.02320313 54.38351563 37.03515625 53.55078125 C37.04417969 52.48214844 37.05320312 51.41351563 37.0625 50.3125 C37.07410156 49.25675781 37.08570313 48.20101562 37.09765625 47.11328125 C37.00865425 44.27589738 36.64939838 41.7561081 36 39 C34.35 39.33 32.7 39.66 31 40 C31.33 39.01 31.66 38.02 32 37 C31.01 37 30.02 37 29 37 C29 35.68 29 34.36 29 33 C26.36 32.34 23.72 31.68 21 31 C21 29.02 21 27.04 21 25 C18.36 24.34 15.72 23.68 13 23 C13 21.02 13 19.04 13 17 C10.36 16.34 7.72 15.68 5 15 C5 12.36 5 9.72 5 7 C4.38125 7.144375 3.7625 7.28875 3.125 7.4375 C-1.22537017 8.22056663 -5.60021907 8.59846659 -10 9 C-10.20625 9.94875 -10.4125 10.8975 -10.625 11.875 C-11.07875 12.90625 -11.5325 13.9375 -12 15 C-15 16 -15 16 -18 17 C-18.495 18.485 -18.495 18.485 -19 20 C-19.495 21.485 -19.495 21.485 -20 23 C-23.125 24.375 -23.125 24.375 -26 25 C-26.495 27.475 -26.495 27.475 -27 30 C-27.99 30 -28.98 30 -30 30 C-30 30.66 -30 31.32 -30 32 C-31.65 32 -33.3 32 -35 32 C-35 33.65 -35 35.3 -35 37 C-36.485 37.495 -36.485 37.495 -38 38 C-38 38.66 -38 39.32 -38 40 C-39.98 40.495 -39.98 40.495 -42 41 C-42.33 43.31 -42.66 45.62 -43 48 C-43.33 47.34 -43.66 46.68 -44 46 C-44.66 46 -45.32 46 -46 46 C-46 46.66 -46 47.32 -46 48 C-47.65 48 -49.3 48 -51 48 C-51 50.64 -51 53.28 -51 56 C-51.66 54.68 -52.32 53.36 -53 52 C-53.66 52 -54.32 52 -55 52 C-54.34 53.32 -53.68 54.64 -53 56 C-54.98 56 -56.96 56 -59 56 C-59.33 56.99 -59.66 57.98 -60 59 C-60.99 57.68 -61.98 56.36 -63 55 C-55.99675192 47.97361239 -48.99082824 40.9499049 -41.98144722 33.92963505 C-38.72702548 30.66998802 -35.47354324 27.40941451 -32.22216797 24.14672852 C-29.08615334 20.99987249 -25.94772363 17.85544412 -22.80758286 14.71270561 C-21.60818473 13.51145551 -20.40966912 12.30932361 -19.21203995 11.10630989 C-17.53836062 9.42540356 -15.86161053 7.7476203 -14.18408203 6.07055664 C-13.6863327 5.56921204 -13.18858337 5.06786743 -12.67575073 4.55133057 C-8.40536969 0.29379172 -6.14943819 -0.69429141 0 0 Z " fill="#5DC1F3" transform="translate(203,0)"/>
<path d="M0 0 C0.66 0.99 1.32 1.98 2 3 C6.73168888 8.75944091 11.91943344 14.05899042 17.19848633 19.31201172 C18.38025955 20.49400398 18.38025955 20.49400398 19.58590698 21.69987488 C22.16558266 24.27885932 24.74877239 26.85429263 27.33203125 29.4296875 C29.1334943 31.22928321 30.93473501 33.02910151 32.73576355 34.82913208 C36.97767546 39.06762844 41.22180354 43.303893 45.46703976 47.5390588 C50.29640649 52.35721874 55.12290955 57.17824299 59.94918025 61.99950385 C69.46601639 71.50634451 78.98607093 81.00995587 88.50845051 90.51124382 C89.67292476 91.67353729 90.83661563 92.83661563 92 94 C88.04 94 84.08 94 80 94 C80 93.34 80 92.68 80 92 C79.34 91.67 78.68 91.34 78 91 C77.67 91.66 77.34 92.32 77 93 C77 90.69 77 88.38 77 86 C75.865625 86.020625 74.73125 86.04125 73.5625 86.0625 C70 86 70 86 69 85 C68.95907063 82.66702567 68.95758277 80.33294775 69 78 C67.865625 78.020625 66.73125 78.04125 65.5625 78.0625 C62 78 62 78 61 77 C60.95907063 74.66702567 60.95758277 72.33294775 61 70 C59.02 70 57.04 70 55 70 C55 69.01 55 68.02 55 67 C54.01 66.505 54.01 66.505 53 66 C53 64.68 53 63.36 53 62 C51.02 62 49.04 62 47 62 C47 61.01 47 60.02 47 59 C46.01 58.505 46.01 58.505 45 58 C45.33 56.68 45.66 55.36 46 54 C45.071875 54.04125 44.14375 54.0825 43.1875 54.125 C40 54 40 54 37 52 C37.0825 51.2575 37.165 50.515 37.25 49.75 C37.28566268 46.99471212 37.28566268 46.99471212 35.59375 45.515625 C34.34238317 44.48695904 33.07879879 43.4730127 31.8046875 42.47265625 C29.48661193 40.58106644 27.81972753 38.36564579 26 36 C22.24437929 31.63535971 19.49603323 30.47970126 14 29 C13 26 13 26 13 23 C10.69 22.67 8.38 22.34 6 22 C5.01879536 18.94736336 5.01879536 17.05263664 6 14 C5.01 13.67 4.02 13.34 3 13 C2.28272222 11.35448038 1.61674772 9.68577711 1 8 C0.34 7.34 -0.32 6.68 -1 6 C-0.625 2.875 -0.625 2.875 0 0 Z " fill="#EEEDEE" transform="translate(3,98)"/>
<path d="M0 0 C0.33 0.66 0.66 1.32 1 2 C0.39351421 3.68949614 -0.27840576 5.35636866 -1 7 C-1.33 7.99 -1.66 8.98 -2 10 C-4.0625 11.6875 -4.0625 11.6875 -6 13 C-6 12.34 -6 11.68 -6 11 C-6.66 11 -7.32 11 -8 11 C-8.309375 11.61875 -8.61875 12.2375 -8.9375 12.875 C-9.625 14.25 -10.3125 15.625 -11 17 C-10.34 17.33 -9.68 17.66 -9 18 C-10.75 20 -10.75 20 -13 22 C-14.32 22 -15.64 22 -17 22 C-18.01866229 23.65532623 -19.01810813 25.32260138 -20 27 C-22.1875 27.8125 -22.1875 27.8125 -24 28 C-24.75427297 32.97906259 -24.75427297 32.97906259 -25 38 C-22.36 38 -19.72 38 -17 38 C-17 40.64 -17 43.28 -17 46 C-14.36 46 -11.72 46 -9 46 C-9 48.64 -9 51.28 -9 54 C-6.36 54 -3.72 54 -1 54 C-1 56.64 -1 59.28 -1 62 C1.64 62 4.28 62 7 62 C7 64.64 7 67.28 7 70 C8.27875 69.979375 9.5575 69.95875 10.875 69.9375 C14.75 69.875 14.75 69.875 17 71 C17.625 73.0625 17.625 73.0625 18 75 C19.32 75.33 20.64 75.66 22 76 C22 76.66 22 77.32 22 78 C15.23737805 78.84532774 15.23737805 78.84532774 12.0994873 76.7016449 C11.48335571 76.12777542 10.86722412 75.55390594 10.23242188 74.96264648 C9.53947021 74.32430878 8.84651855 73.68597107 8.13256836 73.02828979 C7.4288208 72.35895416 6.72507324 71.68961853 6 71 C5.00141968 70.06500168 5.00141968 70.06500168 3.98266602 69.1111145 C-0.44609144 64.92895892 -4.78919949 60.65823775 -9.12988281 56.38500977 C-10.71639323 54.83036683 -12.31089899 53.28384335 -13.91308594 51.74536133 C-16.24274873 49.50678274 -18.5452668 47.24318399 -20.84375 44.97265625 C-21.56236206 44.29219742 -22.28097412 43.61173859 -23.0213623 42.91065979 C-26.2874615 39.63147671 -28.43114532 37.41607992 -28.52856445 32.64550781 C-27.95687441 28.70256289 -27.4549722 27.4549722 -24.6875 24.6875 C-23.88828125 23.86894531 -23.0890625 23.05039063 -22.265625 22.20703125 C-21.77642578 21.7270166 -21.28722656 21.24700195 -20.78320312 20.75244141 C-18.55930445 18.56690681 -16.36672338 16.35142045 -14.171875 14.13671875 C-9.46951494 9.40257107 -4.74170398 4.69471347 0 0 Z " fill="#2B89E3" transform="translate(81,114)"/>
<path d="M0 0 C0.99 0 1.98 0 3 0 C2.67 1.98 2.34 3.96 2 6 C1.05125 6.20625 0.1025 6.4125 -0.875 6.625 C-2.421875 7.305625 -2.421875 7.305625 -4 8 C-4.33 8.99 -4.66 9.98 -5 11 C-5.33 11.99 -5.66 12.98 -6 14 C-9.125 15.375 -9.125 15.375 -12 16 C-12.495 18.475 -12.495 18.475 -13 21 C-13.99 21 -14.98 21 -16 21 C-16 21.66 -16 22.32 -16 23 C-17.65 23 -19.3 23 -21 23 C-21 24.65 -21 26.3 -21 28 C-21.99 28.33 -22.98 28.66 -24 29 C-24 29.66 -24 30.32 -24 31 C-25.32 31.33 -26.64 31.66 -28 32 C-28.33 34.31 -28.66 36.62 -29 39 C-29.33 38.34 -29.66 37.68 -30 37 C-30.66 37 -31.32 37 -32 37 C-32 37.66 -32 38.32 -32 39 C-33.65 39 -35.3 39 -37 39 C-37 41.64 -37 44.28 -37 47 C-37.66 45.68 -38.32 44.36 -39 43 C-39.66 43 -40.32 43 -41 43 C-40.34 44.32 -39.68 45.64 -39 47 C-40.98 47 -42.96 47 -45 47 C-45.33 47.99 -45.66 48.98 -46 50 C-46.99 48.68 -47.98 47.36 -49 46 C-43.78713624 40.69417831 -38.56330708 35.3994116 -33.32547665 30.11822796 C-30.89328803 27.66522479 -28.46493576 25.20866773 -26.04516602 22.7434082 C-23.25878838 19.90498378 -20.45603896 17.08304283 -17.65234375 14.26171875 C-16.7916478 13.38037766 -15.93095184 12.49903656 -15.04417419 11.59098816 C-10.55001122 7.09516999 -6.9934616 4.11880067 -1 2 C-0.67 1.34 -0.34 0.68 0 0 Z " fill="#53B5F0" transform="translate(189,9)"/>
<path d="M0 0 C0.66 0.99 1.32 1.98 2 3 C6.70656786 8.7287554 11.86390351 13.99990719 17.12109375 19.21875 C18.23823509 20.33376892 18.23823509 20.33376892 19.37794495 21.47131348 C21.72876745 23.81659301 24.08306431 26.15834836 26.4375 28.5 C28.04385199 30.10132961 29.64997397 31.70288998 31.25585938 33.3046875 C35.16791985 37.20579473 39.08282952 41.1040242 43 45 C42.34 45.99 41.68 46.98 41 48 C40.34 46.68 39.68 45.36 39 44 C38.34 44 37.68 44 37 44 C36.67 43.34 36.34 42.68 36 42 C35.01 41.67 34.02 41.34 33 41 C31.8125 38.4375 31.8125 38.4375 31 36 C30.34 36 29.68 36 29 36 C28.67 35.34 28.34 34.68 28 34 C26.515 33.505 26.515 33.505 25 33 C22.35703248 30.66796984 21.12775574 29.38326722 20 26 C19.01 25.67 18.02 25.34 17 25 C16.195625 24.175 15.39125 23.35 14.5625 22.5 C12.06039902 20.05892587 11.26189607 19.56239587 8 19 C7.34 18.34 6.68 17.68 6 17 C6 16.01 6 15.02 6 14 C5.01 13.67 4.02 13.34 3 13 C2.28272222 11.35448038 1.61674772 9.68577711 1 8 C0.34 7.34 -0.32 6.68 -1 6 C-0.625 2.875 -0.625 2.875 0 0 Z " fill="#E0E3E7" transform="translate(3,98)"/>
<path d="M0 0 C5.77221962 4.79414773 11.07587967 9.94544478 16.36328125 15.265625 C17.23647507 16.14023376 18.10966888 17.01484253 19.00932312 17.91595459 C21.77942024 20.69161618 24.546009 23.47074466 27.3125 26.25 C29.19024063 28.13332649 31.06877584 30.015858 32.94726562 31.8984375 C37.06297677 36.02395416 41.17648487 40.15165275 45.28804016 44.28131104 C46.52405059 45.52217979 47.76155802 46.76155802 49 48 C46.69 48 44.38 48 42 48 C42 47.34 42 46.68 42 46 C41.360625 45.525625 40.72125 45.05125 40.0625 44.5625 C38 43 38 43 37 40 C36.01 39.34 35.02 38.68 34 38 C34 37.34 34 36.68 34 36 C33.360625 35.896875 32.72125 35.79375 32.0625 35.6875 C31.381875 35.460625 30.70125 35.23375 30 35 C29.67 34.01 29.34 33.02 29 32 C28.01 31.34 27.02 30.68 26 30 C26 29.34 26 28.68 26 28 C25.360625 27.896875 24.72125 27.79375 24.0625 27.6875 C23.381875 27.460625 22.70125 27.23375 22 27 C21.67 26.01 21.34 25.02 21 24 C19.39950013 22.66606585 19.39950013 22.66606585 17.5 21.5 C14.11111111 19.33333333 14.11111111 19.33333333 13 16 C11.23947135 14.61521967 9.39227023 13.47160626 7.49609375 12.28125 C7.00238281 11.8584375 6.50867187 11.435625 6 11 C6 10.01 6 9.02 6 8 C2.6136749 6.49069817 2.6136749 6.49069817 -1 6 C-0.67 4.02 -0.34 2.04 0 0 Z " fill="#DCE2E7" transform="translate(46,144)"/>
<path d="M0 0 C-0.50740462 4.39750672 -3.08293314 6.86948922 -6 10 C-6.66 10 -7.32 10 -8 10 C-8.33 12.64 -8.66 15.28 -9 18 C-9.763125 18.12375 -10.52625 18.2475 -11.3125 18.375 C-14.20267136 18.88102792 -14.20267136 18.88102792 -17 21 C-17 20.01 -17 19.02 -17 18 C-17.66 17.67 -18.32 17.34 -19 17 C-18.15695313 16.16855469 -17.31390625 15.33710937 -16.4453125 14.48046875 C-15.33840925 13.38294603 -14.2316457 12.28528241 -13.125 11.1875 C-12.56941406 10.64029297 -12.01382813 10.09308594 -11.44140625 9.52929688 C-10.90644531 8.99755859 -10.37148437 8.46582031 -9.8203125 7.91796875 C-9.32805176 7.43094482 -8.83579102 6.9439209 -8.32861328 6.44213867 C-6.77411511 4.82996499 -6.77411511 4.82996499 -5 2 C-2 0 -2 0 0 0 Z M-20 22 C-19.34 22.33 -18.68 22.66 -18 23 C-18.33 23.99 -18.66 24.98 -19 26 C-19.66 25.01 -20.32 24.02 -21 23 C-20.67 22.67 -20.34 22.34 -20 22 Z M-22 26 C-20 27 -20 27 -20 27 Z " fill="#3794E9" transform="translate(104,93)"/>
<path d="M0 0 C3.48539917 0.64544429 6.02819057 2.10134397 9 4 C9 3.34 9 2.68 9 2 C9.99 2.33 10.98 2.66 12 3 C11.67 3.99 11.34 4.98 11 6 C11.66 6 12.32 6 13 6 C13.66 5.34 14.32 4.68 15 4 C14.835 4.9075 14.67 5.815 14.5 6.75 C13.89862854 10.11087503 13.89862854 10.11087503 14 14 C9.73495079 10.62763551 6.40469108 7.23285918 3 3 C2.01709032 1.98319689 1.02665213 0.97261781 0 0 Z " fill="#F8FAF6" transform="translate(57,54)"/>
<path d="M0 0 C1 3 1 3 1 7 C-0.31200404 8.35432675 -1.64631404 9.68733482 -3 11 C-3.7872678 13.1381966 -3.7872678 13.1381966 -4 15 C-4.33 15 -4.66 15 -5 15 C-5.99 15.495 -5.99 15.495 -7 16 C-7.66 15.67 -8.32 15.34 -9 15 C-7.30742769 8.31879351 -5.22573114 4.52896699 0 0 Z " fill="#42A8F0" transform="translate(139,56)"/>
<path d="M0 0 C1.485 0.99 1.485 0.99 3 2 C4.010625 2.103125 5.02125 2.20625 6.0625 2.3125 C7.5165625 2.6528125 7.5165625 2.6528125 9 3 C10.375 5.5625 10.375 5.5625 11 8 C10.67 8.33 10.34 8.66 10 9 C10.99 9.99 11.98 10.98 13 12 C12.01 12.33 11.02 12.66 10 13 C9.01 12.34 8.02 11.68 7 11 C6.8125 8.375 6.8125 8.375 7 6 C4.69 5.67 2.38 5.34 0 5 C-0.5625 3.0625 -0.5625 3.0625 -1 1 C-0.67 0.67 -0.34 0.34 0 0 Z " fill="#F2EFF2" transform="translate(9,115)"/>
<path d="M0 0 C2.64 0 5.28 0 8 0 C7.690625 0.5775 7.38125 1.155 7.0625 1.75 C6.07416636 3.84294184 5.4831387 5.74535275 5 8 C3.35 8 1.7 8 0 8 C0 5.36 0 2.72 0 0 Z " fill="#E2E5E8" transform="translate(96,192)"/>
<path d="M0 0 C1 3 1 3 0 6 C-0.99 6 -1.98 6 -3 6 C-3.66 7.32 -4.32 8.64 -5 10 C-5.66 9.67 -6.32 9.34 -7 9 C-7.061875 9.598125 -7.12375 10.19625 -7.1875 10.8125 C-8.33938899 13.91373958 -10.06759592 14.64108103 -13 16 C-13.66 15.67 -14.32 15.34 -15 15 C-10.05 10.05 -5.1 5.1 0 0 Z " fill="#51A0DF" transform="translate(123,72)"/>
<path d="M0 0 C0.33 0.99 0.66 1.98 1 3 C0.01 4.485 0.01 4.485 -1 6 C0.32 6.33 1.64 6.66 3 7 C3 7.33 3 7.66 3 8 C1.02 8 -0.96 8 -3 8 C-3.33 8.99 -3.66 9.98 -4 11 C-4.99 9.68 -5.98 8.36 -7 7 C-4.69 4.69 -2.38 2.38 0 0 Z " fill="#55AEEA" transform="translate(147,48)"/>
<path d="M0 0 C3 2 3 2 4 5 C4.45776567 11.40871935 4.45776567 11.40871935 2.5 13.9375 C2.005 14.288125 1.51 14.63875 1 15 C1 14.34 1 13.68 1 13 C0.34 13 -0.32 13 -1 13 C-1 12.34 -1 11.68 -1 11 C-0.34 11 0.32 11 1 11 C0.67 7.37 0.34 3.74 0 0 Z " fill="#6DC4F1" transform="translate(242,38)"/>
<path d="M0 0 C0 0.66 0 1.32 0 2 C-0.66 2 -1.32 2 -2 2 C-2.33 2.66 -2.66 3.32 -3 4 C-3.33 3.67 -3.66 3.34 -4 3 C-5.4555937 2.90141397 -6.91607919 2.87027857 -8.375 2.875 C-9.56222656 2.87113281 -9.56222656 2.87113281 -10.7734375 2.8671875 C-13.17343496 2.91382334 -13.17343496 2.91382334 -16 4 C-15.375 2.05078125 -15.375 2.05078125 -14 0 C-11.25 -0.64453125 -11.25 -0.64453125 -8 -0.8125 C-6.39125 -0.91498047 -6.39125 -0.91498047 -4.75 -1.01953125 C-2 -1 -2 -1 0 0 Z " fill="#F1F4FB" transform="translate(58,49)"/>
<path d="M0 0 C0.66 0 1.32 0 2 0 C2 2.31 2 4.62 2 7 C-0.31 7 -2.62 7 -5 7 C-4.1875 5.0625 -4.1875 5.0625 -3 3 C-2.01 2.67 -1.02 2.34 0 2 C0 1.34 0 0.68 0 0 Z " fill="#D5DBE4" transform="translate(118,177)"/>
<path d="M0 0 C0 2.31 0 4.62 0 7 C-2.64 7 -5.28 7 -8 7 C-6.625 5 -6.625 5 -5 3 C-4.34 3 -3.68 3 -3 3 C-3 2.34 -3 1.68 -3 1 C-1 0 -1 0 0 0 Z " fill="#D8DDE7" transform="translate(208,89)"/>
<path d="M0 0 C0.33 0 0.66 0 1 0 C1 2.31 1 4.62 1 7 C-1.64 7 -4.28 7 -7 7 C-4.66666667 4.66666667 -2.33333333 2.33333333 0 0 Z " fill="#DBDFE6" transform="translate(215,81)"/>
<path d="M0 0 C2.64 0 5.28 0 8 0 C5.42215154 2.64752004 3.08351902 4.94432065 0 7 C0 4.69 0 2.38 0 0 Z " fill="#51B6EE" transform="translate(216,72)"/>
<path d="M0 0 C2.64 0 5.28 0 8 0 C5.42215154 2.64752004 3.08351902 4.94432065 0 7 C0 4.69 0 2.38 0 0 Z " fill="#53BBF1" transform="translate(224,64)"/>
<path d="M0 0 C2.64 0 5.28 0 8 0 C5.42215154 2.64752004 3.08351902 4.94432065 0 7 C0 4.69 0 2.38 0 0 Z " fill="#56BDF0" transform="translate(232,56)"/>
<path d="M0 0 C0 2.31 0 4.62 0 7 C-2.31 7 -4.62 7 -7 7 C-6.04004484 4.12013451 -3.56234645 0 0 0 Z " fill="#DADDE3" transform="translate(136,161)"/>
<path d="M0 0 C0 2.31 0 4.62 0 7 C-2.31 7 -4.62 7 -7 7 C-6.04004484 4.12013451 -3.56234645 0 0 0 Z " fill="#DBDFE2" transform="translate(144,153)"/>
<path d="M0 0 C0 2.31 0 4.62 0 7 C-2.31 7 -4.62 7 -7 7 C-6.04004484 4.12013451 -3.56234645 0 0 0 Z " fill="#DDE0E2" transform="translate(160,137)"/>
<path d="M0 0 C0 2.31 0 4.62 0 7 C-2.64 7 -5.28 7 -8 7 C-2.34042553 0 -2.34042553 0 0 0 Z " fill="#DCDFE4" transform="translate(184,113)"/>
<path d="M0 0 C0 2.31 0 4.62 0 7 C-2.64 7 -5.28 7 -8 7 C-2.34042553 0 -2.34042553 0 0 0 Z " fill="#DDE0E5" transform="translate(192,105)"/>
<path d="M0 0 C0.33 0 0.66 0 1 0 C1 2.31 1 4.62 1 7 C-1.64 7 -4.28 7 -7 7 C-4.66666667 4.66666667 -2.33333333 2.33333333 0 0 Z " fill="#DBDEE6" transform="translate(223,73)"/>
<path d="M0 0 C0.33 0 0.66 0 1 0 C1 2.31 1 4.62 1 7 C-1.64 7 -4.28 7 -7 7 C-4.66666667 4.66666667 -2.33333333 2.33333333 0 0 Z " fill="#DAE0E7" transform="translate(231,65)"/>
<path d="M0 0 C0.33 0 0.66 0 1 0 C1 2.31 1 4.62 1 7 C-1.64 7 -4.28 7 -7 7 C-4.66666667 4.66666667 -2.33333333 2.33333333 0 0 Z " fill="#DAE0E6" transform="translate(239,57)"/>
<path d="M0 0 C0.33 0 0.66 0 1 0 C1 2.31 1 4.62 1 7 C-1.64 7 -4.28 7 -7 7 C-4.66666667 4.66666667 -2.33333333 2.33333333 0 0 Z " fill="#DBE1E1" transform="translate(111,185)"/>
<path d="M0 0 C0 2.31 0 4.62 0 7 C-2.31 7 -4.62 7 -7 7 C-7 6.34 -7 5.68 -7 5 C-1.4047619 0 -1.4047619 0 0 0 Z " fill="#DEDFE2" transform="translate(128,169)"/>
<path d="M0 0 C0 2.31 0 4.62 0 7 C-2.64 7 -5.28 7 -8 7 C-2.34042553 0 -2.34042553 0 0 0 Z " fill="#DCDFE4" transform="translate(152,145)"/>
<path d="M0 0 C0 2.31 0 4.62 0 7 C-2.31 7 -4.62 7 -7 7 C-6.04004484 4.12013451 -3.56234645 0 0 0 Z " fill="#E0E1E2" transform="translate(168,129)"/>
<path d="M0 0 C0.68707555 2.49064888 1 4.37886292 1 7 C-1.64 7 -4.28 7 -7 7 C-2.25 1.125 -2.25 1.125 0 0 Z " fill="#DCDFE4" transform="translate(175,121)"/>
<path d="M0 0 C0.33 0 0.66 0 1 0 C1 2.31 1 4.62 1 7 C-1.64 7 -4.28 7 -7 7 C-4.66666667 4.66666667 -2.33333333 2.33333333 0 0 Z " fill="#DFE0E5" transform="translate(199,97)"/>
<path d="M0 0 C0.433125 0.495 0.86625 0.99 1.3125 1.5 C2.99740483 3.33218192 2.99740483 3.33218192 6 3 C6.66 2.01 7.32 1.02 8 0 C8.99 0.33 9.98 0.66 11 1 C7.535 3.97 7.535 3.97 4 7 C2.02 5.35 0.04 3.7 -2 2 C-1.34 1.34 -0.68 0.68 0 0 Z " fill="#E5F3F7" transform="translate(95,89)"/>
<path d="M0 0 C2.2636564 1.40445835 4.0208685 3.1967913 6 5 C5.01 5.495 5.01 5.495 4 6 C3.67 6.66 3.34 7.32 3 8 C2.67 7.01 2.34 6.02 2 5 C1.01 5 0.02 5 -1 5 C-1 4.34 -1 3.68 -1 3 C-1.66 3 -2.32 3 -3 3 C-3 2.34 -3 1.68 -3 1 C-2.01 0.67 -1.02 0.34 0 0 Z " fill="#65C4F6" transform="translate(222,18)"/>
<path d="M0 0 C1.98 0 3.96 0 6 0 C4.52307692 4.67692308 4.52307692 4.67692308 1.875 6.3125 C0.946875 6.6528125 0.946875 6.6528125 0 7 C0 4.69 0 2.38 0 0 Z " fill="#3192E8" transform="translate(120,168)"/>
<path d="M0 0 C0.94875 0.04125 1.8975 0.0825 2.875 0.125 C0.29715154 2.77252004 -2.04148098 5.06932065 -5.125 7.125 C-5.25 4.75 -5.25 4.75 -5.125 2.125 C-3.125 0.125 -3.125 0.125 0 0 Z " fill="#50B4EC" transform="translate(213.125,79.875)"/>
<path d="M0 0 C1 3 1 3 1 7 C-2.36541838 8.08174162 -3.29847322 7.92538169 -7 7 C-4.69 4.69 -2.38 2.38 0 0 Z " fill="#54A8E3" transform="translate(139,56)"/>
<path d="M0 0 C1.98 0 3.96 0 6 0 C4.52307692 4.67692308 4.52307692 4.67692308 1.875 6.3125 C0.946875 6.6528125 0.946875 6.6528125 0 7 C0 4.69 0 2.38 0 0 Z " fill="#3194EA" transform="translate(128,160)"/>
<path d="M0 0 C-0.33 1.98 -0.66 3.96 -1 6 C-2.32 5.67 -3.64 5.34 -5 5 C-5 3.68 -5 2.36 -5 1 C-3 0 -3 0 0 0 Z " fill="#268AE6" transform="translate(64,152)"/>
<path d="M0 0 C0.598125 0.495 1.19625 0.99 1.8125 1.5 C3.97029994 3.28276418 3.97029994 3.28276418 7 3 C7 3.66 7 4.32 7 5 C4.69 5 2.38 5 0 5 C0 4.34 0 3.68 0 3 C-0.99 2.67 -1.98 2.34 -3 2 C-2.01 1.34 -1.02 0.68 0 0 Z " fill="#2486E8" transform="translate(96,187)"/>
<path d="M0 0 C4.31392226 0.4793247 6.16569547 1.7457985 9 5 C8.67 5.66 8.34 6.32 8 7 C7.34 7 6.68 7 6 7 C6 6.34 6 5.68 6 5 C4.02 4.34 2.04 3.68 0 3 C0 2.01 0 1.02 0 0 Z " fill="#EEEBEB" transform="translate(67,171)"/>
<path d="M0 0 C1.2065625 0.0309375 1.2065625 0.0309375 2.4375 0.0625 C1.10417905 4.06246286 -1.0582827 4.90032337 -4.5625 7.0625 C-3.5234375 0.0859375 -3.5234375 0.0859375 0 0 Z " fill="#288CE7" transform="translate(116.5625,175.9375)"/>
<path d="M0 0 C2 3 4 6 6 9 C1.25 8.25 1.25 8.25 -1 6 C-0.625 2.875 -0.625 2.875 0 0 Z " fill="#DDE8F0" transform="translate(3,98)"/>
<path d="M0 0 C0.763125 0.20625 1.52625 0.4125 2.3125 0.625 C2.9725 2.935 3.6325 5.245 4.3125 7.625 C3.3225 8.12 3.3225 8.12 2.3125 8.625 C0.8518715 5.97761084 0.3125 4.73051666 0.3125 1.625 C-1.6675 1.625 -3.6475 1.625 -5.6875 1.625 C-2.6875 -0.375 -2.6875 -0.375 0 0 Z " fill="#1556B0" transform="translate(55.6875,54.375)"/>
<path d="M0 0 C0.66 0 1.32 0 2 0 C2.042721 1.66611905 2.04063832 3.33382885 2 5 C1 6 1 6 -1.5625 6.0625 C-2.7690625 6.0315625 -2.7690625 6.0315625 -4 6 C-2.7260411 3.96166576 -1.38938077 1.96147874 0 0 Z " fill="#ECEFF5" transform="translate(245,50)"/>
<path d="M0 0 C0.33 0.99 0.66 1.98 1 3 C-0.9375 5.6875 -0.9375 5.6875 -3 8 C-4.32 7.67 -5.64 7.34 -7 7 C-4.69 4.69 -2.38 2.38 0 0 Z " fill="#60B4E7" transform="translate(163,32)"/>
<path d="M0 0 C3.5 0.25 3.5 0.25 5.5 2.25 C1.48195309 3.09098656 -1.51803543 3.30404945 -5.5 2.25 C-3.5 0.25 -3.5 0.25 0 0 Z " fill="#6FC6F2" transform="translate(199.5,-0.25)"/>
<path d="M0 0 C2.475 0.495 2.475 0.495 5 1 C4.34 2.32 3.68 3.64 3 5 C2.01 4.67 1.02 4.34 0 4 C0 2.68 0 1.36 0 0 Z " fill="#EAE7E8" transform="translate(6,107)"/>
<path d="M0 0 C1 3 1 3 0.0625 5.1875 C-0.4634375 6.0846875 -0.4634375 6.0846875 -1 7 C-2.32 6.34 -3.64 5.68 -5 5 C-3.35 3.35 -1.7 1.7 0 0 Z " fill="#53A6E4" transform="translate(131,64)"/>
<path d="M0 0 C0.33 0.99 0.66 1.98 1 3 C0.34 3 -0.32 3 -1 3 C-1 3.66 -1 4.32 -1 5 C-0.34 5 0.32 5 1 5 C0.625 6.9375 0.625 6.9375 0 9 C-0.99 9.495 -0.99 9.495 -2 10 C-2 7.36 -2 4.72 -2 2 C-1.34 2 -0.68 2 0 2 C0 1.34 0 0.68 0 0 Z " fill="#5CBEED" transform="translate(242,46)"/>
<path d="M0 0 C0.66 0 1.32 0 2 0 C2.33 1.98 2.66 3.96 3 6 C1.35 6 -0.3 6 -2 6 C-1.34 4.02 -0.68 2.04 0 0 Z " fill="#4AB5F7" transform="translate(164,32)"/>
<path d="M0 0 C2.475 0.495 2.475 0.495 5 1 C4.34 2.65 3.68 4.3 3 6 C2.34 5.67 1.68 5.34 1 5 C0.375 2.4375 0.375 2.4375 0 0 Z " fill="#2789E8" transform="translate(103,184)"/>
<path d="M0 0 C0.33 1.32 0.66 2.64 1 4 C2.32 4.33 3.64 4.66 5 5 C4.01 5.66 3.02 6.32 2 7 C0.35 5.02 -1.3 3.04 -3 1 C-2.01 0.67 -1.02 0.34 0 0 Z " fill="#3387DA" transform="translate(79,172)"/>
<path d="M0 0 C0.33 1.32 0.66 2.64 1 4 C2.32 4.33 3.64 4.66 5 5 C4.01 5.66 3.02 6.32 2 7 C0.35 5.02 -1.3 3.04 -3 1 C-2.01 0.67 -1.02 0.34 0 0 Z " fill="#3387DA" transform="translate(71,164)"/>
<path d="M0 0 C0.33 0.66 0.66 1.32 1 2 C1.66 2.33 2.32 2.66 3 3 C2.34 4.98 1.68 6.96 1 9 C-1.14809171 5.77786243 -1.29386153 4.72224599 -1 1 C-0.67 0.67 -0.34 0.34 0 0 Z " fill="#245DB3" transform="translate(4,92)"/>
<path d="M0 0 C1.65 0 3.3 0 5 0 C5.66 1.65 6.32 3.3 7 5 C6.01 5 5.02 5 4 5 C1.8125 2.5 1.8125 2.5 0 0 Z " fill="#DCE8F3" transform="translate(65,62)"/>
<path d="M0 0 C0.33 0.66 0.66 1.32 1 2 C1.99 2 2.98 2 4 2 C4 2.66 4 3.32 4 4 C4.99 4.33 5.98 4.66 7 5 C4.36 4.67 1.72 4.34 -1 4 C-0.67 2.68 -0.34 1.36 0 0 Z " fill="#55BFF1" transform="translate(209,11)"/>
<path d="M0 0 C0.33 0.99 0.66 1.98 1 3 C3.01508358 3.73323796 3.01508358 3.73323796 5 4 C4.01 5.485 4.01 5.485 3 7 C1.35 5.02 -0.3 3.04 -2 1 C-1.34 0.67 -0.68 0.34 0 0 Z " fill="#3282D5" transform="translate(55,149)"/>
<path d="M0 0 C0.66 0.33 1.32 0.66 2 1 C2 2.65 2 4.3 2 6 C1.34 6 0.68 6 0 6 C-0.66 4.35 -1.32 2.7 -2 1 C-1.34 0.67 -0.68 0.34 0 0 Z M-3 4 C-1 5 -1 5 -1 5 Z " fill="#F4F5F3" transform="translate(4,106)"/>
<path d="M0 0 C2.89932357 2.39509338 3.50168276 4.31245243 4 8 C3.01 8.495 3.01 8.495 2 9 C0.50178941 5.62902617 0 3.79557881 0 0 Z " fill="#1354B0" transform="translate(88,86)"/>
<path d="M0 0 C2.96175123 0.61277612 4.38058783 1.25372522 7 3 C6.67 3.99 6.34 4.98 6 6 C3.97945196 4.35830472 1.97956942 2.69088222 0 1 C0 0.67 0 0.34 0 0 Z " fill="#DAE8F1" transform="translate(57,54)"/>
<path d="M0 0 C2.64 0.33 5.28 0.66 8 1 C8 1.33 8 1.66 8 2 C4.7 2.66 1.4 3.32 -2 4 C-1.34 2.68 -0.68 1.36 0 0 Z " fill="#BAD4EE" transform="translate(44,49)"/>
</svg>
